<svg xmlns="http://www.w3.org/2000/svg" width="1040" height="190" viewBox="0 0 1040 190" fill="none">
<defs>

<filter id="softOrangeGlow" x="-50%" y="-50%" width="200%" height="200%">
  <feGaussianBlur stdDeviation="3.5" result="blur"/>
  <feColorMatrix in="blur" type="matrix" values="1 0 0 0 1  0 0.42 0 0 0.38  0 0 0.05 0 0  0 0 0 0.72 0" result="glow"/>
  <feMerge><feMergeNode in="glow"/><feMergeNode in="SourceGraphic"/></feMerge>
</filter>
<filter id="subtleOrangeGlow" x="-30%" y="-30%" width="160%" height="160%">
  <feGaussianBlur stdDeviation="1.4" result="blur"/>
  <feMerge><feMergeNode in="blur"/><feMergeNode in="SourceGraphic"/></feMerge>
</filter>
<linearGradient id="panelFade" x1="0" x2="1" y1="0" y2="1">
  <stop offset="0" stop-color="#050806" stop-opacity="0.96"/>
  <stop offset="1" stop-color="#000000" stop-opacity="0.90"/>
</linearGradient>
<radialGradient id="ringWarm" cx="50%" cy="50%" r="50%">
  <stop offset="0" stop-color="#ff8a00" stop-opacity="0.05"/>
  <stop offset="0.62" stop-color="#ff8a00" stop-opacity="0.11"/>
  <stop offset="1" stop-color="#ff8a00" stop-opacity="0"/>
</radialGradient>
<linearGradient id="navTabFill" x1="0" x2="1">
  <stop offset="0" stop-color="#150800" stop-opacity="0.98"/>
  <stop offset="1" stop-color="#030201" stop-opacity="0.92"/>
</linearGradient>


</defs>
<rect id="import_bounds" x="0" y="0" width="100%" height="100%" fill="#000" opacity="0.001"/>
<path id="bottom_nav_outer_dock" d="M 44.00 38.00 L 996.00 38.00 L 1020.00 62.00 L 1020.00 138.00 L 996.00 162.00 L 44.00 162.00 L 20.00 138.00 L 20.00 62.00 Z" fill="url(#navTabFill)" stroke="#7a3f11" stroke-width="1.2" opacity="0.9"/>
<path id="bottom_nav_active_tab_shell" d="M 36.00 68.00 L 164.00 68.00 L 180.00 84.00 L 180.00 116.00 L 164.00 132.00 L 36.00 132.00 L 20.00 116.00 L 20.00 84.00 Z" fill="#160800" stroke="#ff8a00" stroke-width="1.8" opacity="0.95"/>
<g id="bottom_nav_icon_1"><rect x="89" y="90" width="8" height="8" rx="1.8" stroke="#ff8a00" stroke-width="2.4"/><rect x="89" y="102" width="8" height="8" rx="1.8" stroke="#ff8a00" stroke-width="2.4"/><rect x="101" y="90" width="8" height="8" rx="1.8" stroke="#ff8a00" stroke-width="2.4"/><rect x="101" y="102" width="8" height="8" rx="1.8" stroke="#ff8a00" stroke-width="2.4"/></g>
<g id="bottom_nav_icon_2"><rect x="285" y="98" width="4" height="10" rx="1" fill="#ff8a00" opacity="0.85"/><rect x="294" y="88" width="4" height="20" rx="1" fill="#ff8a00" opacity="0.85"/><rect x="303" y="93" width="4" height="15" rx="1" fill="#ff8a00" opacity="0.85"/><rect x="312" y="81" width="4" height="27" rx="1" fill="#ff8a00" opacity="0.85"/></g>
<g id="bottom_nav_icon_3"><rect x="718" y="85" width="26" height="30" rx="2" stroke="#ff8a00" stroke-width="2.4"/><line x1="724" y1="94" x2="738" y2="94" stroke="#ff8a00" stroke-width="1.6"/><line x1="724" y1="102" x2="738" y2="102" stroke="#ff8a00" stroke-width="1.6"/></g>
<g id="bottom_nav_icon_4"><circle cx="931" cy="100" r="12" stroke="#ff8a00" stroke-width="2.4"/><circle cx="931" cy="100" r="4" stroke="#ff8a00" stroke-width="2.4"/><path d="M931 81 V86 M931 114 V119 M912 100 H917 M945 100 H950" stroke="#ff8a00" stroke-width="2" stroke-linecap="round"/></g>
<path id="bottom_nav_left_rail_slash" d="M215 160 L260 38" stroke="#ff8a00" stroke-width="1" opacity="0.5"/>
<path id="bottom_nav_right_rail_slash" d="M825 38 L780 160" stroke="#ff8a00" stroke-width="1" opacity="0.5"/>
<circle id="bottom_nav_center_cutout_hint" cx="520" cy="98" r="82" fill="#020201" stroke="#7a3f11" stroke-width="1" opacity="0.72"/>
</svg>