<?xml version="1.0" encoding="UTF-8"?>
<svg xmlns="http://www.w3.org/2000/svg" width="190" height="120" viewBox="0 0 190 120" fill="none">
<defs>
  <filter id="soft_glow" x="-60%" y="-60%" width="220%" height="220%">
    <feGaussianBlur stdDeviation="2.25" result="blur"/>
    <feColorMatrix in="blur" type="matrix" values="1 0 0 0 0.95  0 1 0 0 0.45  0 0 1 0 0.05  0 0 0 0.58 0" result="glow"/>
    <feMerge><feMergeNode in="glow"/><feMergeNode in="SourceGraphic"/></feMerge>
  </filter>
  <filter id="micro_glow" x="-30%" y="-30%" width="160%" height="160%">
    <feGaussianBlur stdDeviation="1.1" result="blur"/>
    <feMerge><feMergeNode in="blur"/><feMergeNode in="SourceGraphic"/></feMerge>
  </filter>
</defs>
<rect id="import_bounds" x="0" y="0" width="190" height="120" fill="#000000" opacity="0.001"/>
<g id="confidence_gauge" transform="translate(0 0)">
<path id="confidence_gauge_outer_inactive_track" d="M 36.00 96.00 A 59.00 59.00 0 0 1 154.00 96.00" fill="none" stroke="#5a3516" stroke-width="13" stroke-linecap="butt" opacity="0.28" />
<path id="confidence_gauge_inner_inactive_track" d="M 51.00 96.00 A 44.00 44.00 0 0 1 139.00 96.00" fill="none" stroke="#2c2619" stroke-width="3.0" stroke-linecap="round" opacity="0.42" />
<path id="confidence_gauge_fine_outer_line" d="M 29.00 96.00 A 66.00 66.00 0 0 1 161.00 96.00" fill="none" stroke="#ff8a12" stroke-width="1.05" stroke-linecap="round" opacity="0.3" />
<path id="confidence_gauge_fine_inner_line" d="M 61.00 96.00 A 34.00 34.00 0 0 1 129.00 96.00" fill="none" stroke="#ff8a12" stroke-width="0.8" stroke-linecap="round" opacity="0.18" />
<line id="confidence_gauge_micro_tick_01" x1="26.50" y1="96.00" x2="23.20" y2="96.00" stroke="#6dff9c" stroke-width="1.55" stroke-linecap="round" opacity="0.5327999999999999"/>
<line id="confidence_gauge_micro_tick_02" x1="26.67" y1="91.11" x2="23.38" y2="90.88" stroke="#6dff9c" stroke-width="1.1" stroke-linecap="round" opacity="0.5327999999999999"/>
<line id="confidence_gauge_micro_tick_03" x1="27.20" y1="86.25" x2="23.93" y2="85.78" stroke="#6dff9c" stroke-width="1.1" stroke-linecap="round" opacity="0.5327999999999999"/>
<line id="confidence_gauge_micro_tick_04" x1="28.07" y1="81.44" x2="24.84" y2="80.74" stroke="#6dff9c" stroke-width="1.1" stroke-linecap="round" opacity="0.5327999999999999"/>
<line id="confidence_gauge_micro_tick_05" x1="29.27" y1="76.70" x2="26.11" y2="75.77" stroke="#6dff9c" stroke-width="1.55" stroke-linecap="round" opacity="0.5327999999999999"/>
<line id="confidence_gauge_micro_tick_06" x1="30.82" y1="72.06" x2="27.73" y2="70.91" stroke="#6dff9c" stroke-width="1.1" stroke-linecap="round" opacity="0.5327999999999999"/>
<line id="confidence_gauge_micro_tick_07" x1="32.69" y1="67.54" x2="29.69" y2="66.17" stroke="#6dff9c" stroke-width="1.1" stroke-linecap="round" opacity="0.5327999999999999"/>
<line id="confidence_gauge_micro_tick_08" x1="34.88" y1="63.17" x2="31.98" y2="61.59" stroke="#6dff9c" stroke-width="1.1" stroke-linecap="round" opacity="0.5327999999999999"/>
<line id="confidence_gauge_micro_tick_09" x1="37.37" y1="58.97" x2="34.60" y2="57.18" stroke="#6dff9c" stroke-width="1.55" stroke-linecap="round" opacity="0.5327999999999999"/>
<line id="confidence_gauge_micro_tick_10" x1="40.16" y1="54.95" x2="37.52" y2="52.97" stroke="#6dff9c" stroke-width="1.1" stroke-linecap="round" opacity="0.5327999999999999"/>
<line id="confidence_gauge_micro_tick_11" x1="43.23" y1="51.14" x2="40.74" y2="48.98" stroke="#6dff9c" stroke-width="1.1" stroke-linecap="round" opacity="0.5327999999999999"/>
<line id="confidence_gauge_micro_tick_12" x1="46.56" y1="47.56" x2="44.23" y2="45.23" stroke="#6dff9c" stroke-width="1.1" stroke-linecap="round" opacity="0.5327999999999999"/>
<line id="confidence_gauge_micro_tick_13" x1="50.14" y1="44.23" x2="47.98" y2="41.74" stroke="#6dff9c" stroke-width="1.55" stroke-linecap="round" opacity="0.5327999999999999"/>
<line id="confidence_gauge_micro_tick_14" x1="53.95" y1="41.16" x2="51.97" y2="38.52" stroke="#6dff9c" stroke-width="1.1" stroke-linecap="round" opacity="0.5327999999999999"/>
<line id="confidence_gauge_micro_tick_15" x1="57.97" y1="38.37" x2="56.18" y2="35.60" stroke="#6dff9c" stroke-width="1.1" stroke-linecap="round" opacity="0.5327999999999999"/>
<line id="confidence_gauge_micro_tick_16" x1="62.17" y1="35.88" x2="60.59" y2="32.98" stroke="#6dff9c" stroke-width="1.1" stroke-linecap="round" opacity="0.5327999999999999"/>
<line id="confidence_gauge_micro_tick_17" x1="66.54" y1="33.69" x2="65.17" y2="30.69" stroke="#6dff9c" stroke-width="1.55" stroke-linecap="round" opacity="0.5327999999999999"/>
<line id="confidence_gauge_micro_tick_18" x1="71.06" y1="31.82" x2="69.91" y2="28.73" stroke="#6dff9c" stroke-width="1.1" stroke-linecap="round" opacity="0.5327999999999999"/>
<line id="confidence_gauge_micro_tick_19" x1="75.70" y1="30.27" x2="74.77" y2="27.11" stroke="#6dff9c" stroke-width="1.1" stroke-linecap="round" opacity="0.5327999999999999"/>
<line id="confidence_gauge_micro_tick_20" x1="80.44" y1="29.07" x2="79.74" y2="25.84" stroke="#6dff9c" stroke-width="1.1" stroke-linecap="round" opacity="0.5327999999999999"/>
<line id="confidence_gauge_micro_tick_21" x1="85.25" y1="28.20" x2="84.78" y2="24.93" stroke="#6dff9c" stroke-width="1.55" stroke-linecap="round" opacity="0.5327999999999999"/>
<line id="confidence_gauge_micro_tick_22" x1="90.11" y1="27.67" x2="89.88" y2="24.38" stroke="#6dff9c" stroke-width="1.1" stroke-linecap="round" opacity="0.5327999999999999"/>
<line id="confidence_gauge_micro_tick_23" x1="95.00" y1="27.50" x2="95.00" y2="24.20" stroke="#6dff9c" stroke-width="1.1" stroke-linecap="round" opacity="0.5327999999999999"/>
<line id="confidence_gauge_micro_tick_24" x1="99.89" y1="27.67" x2="100.12" y2="24.38" stroke="#6dff9c" stroke-width="1.1" stroke-linecap="round" opacity="0.5327999999999999"/>
<line id="confidence_gauge_micro_tick_25" x1="104.75" y1="28.20" x2="105.22" y2="24.93" stroke="#6dff9c" stroke-width="1.55" stroke-linecap="round" opacity="0.5327999999999999"/>
<line id="confidence_gauge_micro_tick_26" x1="109.56" y1="29.07" x2="110.26" y2="25.84" stroke="#6dff9c" stroke-width="1.1" stroke-linecap="round" opacity="0.5327999999999999"/>
<line id="confidence_gauge_micro_tick_27" x1="114.30" y1="30.27" x2="115.23" y2="27.11" stroke="#6dff9c" stroke-width="1.1" stroke-linecap="round" opacity="0.5327999999999999"/>
<line id="confidence_gauge_micro_tick_28" x1="118.94" y1="31.82" x2="120.09" y2="28.73" stroke="#6dff9c" stroke-width="1.1" stroke-linecap="round" opacity="0.5327999999999999"/>
<line id="confidence_gauge_micro_tick_29" x1="123.46" y1="33.69" x2="124.83" y2="30.69" stroke="#6dff9c" stroke-width="1.55" stroke-linecap="round" opacity="0.5327999999999999"/>
<line id="confidence_gauge_micro_tick_30" x1="127.83" y1="35.88" x2="129.41" y2="32.98" stroke="#6dff9c" stroke-width="1.1" stroke-linecap="round" opacity="0.5327999999999999"/>
<line id="confidence_gauge_micro_tick_31" x1="132.03" y1="38.37" x2="133.82" y2="35.60" stroke="#6dff9c" stroke-width="1.1" stroke-linecap="round" opacity="0.5327999999999999"/>
<line id="confidence_gauge_micro_tick_32" x1="136.05" y1="41.16" x2="138.03" y2="38.52" stroke="#6dff9c" stroke-width="1.1" stroke-linecap="round" opacity="0.5327999999999999"/>
<line id="confidence_gauge_micro_tick_33" x1="139.86" y1="44.23" x2="142.02" y2="41.74" stroke="#6dff9c" stroke-width="1.55" stroke-linecap="round" opacity="0.5327999999999999"/>
<line id="confidence_gauge_micro_tick_34" x1="143.44" y1="47.56" x2="145.77" y2="45.23" stroke="#6dff9c" stroke-width="1.1" stroke-linecap="round" opacity="0.5327999999999999"/>
<line id="confidence_gauge_micro_tick_35" x1="146.77" y1="51.14" x2="149.26" y2="48.98" stroke="#6dff9c" stroke-width="1.1" stroke-linecap="round" opacity="0.5327999999999999"/>
<line id="confidence_gauge_micro_tick_36" x1="149.84" y1="54.95" x2="152.48" y2="52.97" stroke="#5a3516" stroke-width="1.1" stroke-linecap="round" opacity="0.15839999999999999"/>
<line id="confidence_gauge_micro_tick_37" x1="152.63" y1="58.97" x2="155.40" y2="57.18" stroke="#5a3516" stroke-width="1.55" stroke-linecap="round" opacity="0.15839999999999999"/>
<line id="confidence_gauge_micro_tick_38" x1="155.12" y1="63.17" x2="158.02" y2="61.59" stroke="#5a3516" stroke-width="1.1" stroke-linecap="round" opacity="0.15839999999999999"/>
<line id="confidence_gauge_micro_tick_39" x1="157.31" y1="67.54" x2="160.31" y2="66.17" stroke="#5a3516" stroke-width="1.1" stroke-linecap="round" opacity="0.15839999999999999"/>
<line id="confidence_gauge_micro_tick_40" x1="159.18" y1="72.06" x2="162.27" y2="70.91" stroke="#5a3516" stroke-width="1.1" stroke-linecap="round" opacity="0.15839999999999999"/>
<line id="confidence_gauge_micro_tick_41" x1="160.73" y1="76.70" x2="163.89" y2="75.77" stroke="#5a3516" stroke-width="1.55" stroke-linecap="round" opacity="0.15839999999999999"/>
<line id="confidence_gauge_micro_tick_42" x1="161.93" y1="81.44" x2="165.16" y2="80.74" stroke="#5a3516" stroke-width="1.1" stroke-linecap="round" opacity="0.15839999999999999"/>
<line id="confidence_gauge_micro_tick_43" x1="162.80" y1="86.25" x2="166.07" y2="85.78" stroke="#5a3516" stroke-width="1.1" stroke-linecap="round" opacity="0.15839999999999999"/>
<line id="confidence_gauge_micro_tick_44" x1="163.33" y1="91.11" x2="166.62" y2="90.88" stroke="#5a3516" stroke-width="1.1" stroke-linecap="round" opacity="0.15839999999999999"/>
<line id="confidence_gauge_micro_tick_45" x1="163.50" y1="96.00" x2="166.80" y2="96.00" stroke="#5a3516" stroke-width="1.55" stroke-linecap="round" opacity="0.15839999999999999"/>
<path id="confidence_gauge_active_green_broad_arc" d="M 36.00 96.00 A 59.00 59.00 0 0 1 140.46 58.39" fill="none" stroke="#20ff72" stroke-width="12.5" stroke-linecap="butt" opacity="0.93" filter="url(#soft_glow)" />
<path id="confidence_gauge_active_green_inner_edge" d="M 44.50 96.00 A 50.50 50.50 0 0 1 133.91 63.81" fill="none" stroke="#6dff9c" stroke-width="1.8" stroke-linecap="round" opacity="0.75" />
<path id="confidence_gauge_active_green_outer_edge" d="M 27.17 91.26 A 68.00 68.00 0 0 1 144.24 49.11" fill="none" stroke="#6dff9c" stroke-width="1.2" stroke-linecap="round" opacity="0.55" />
<path id="confidence_gauge_right_dormant_arc" d="M 142.97 61.65 A 59.00 59.00 0 0 1 154.00 96.00" fill="none" stroke="#2b1a0f" stroke-width="13" stroke-linecap="butt" opacity="0.5" />
</g>
</svg>